<svg version="1.1" xmlns="http://www.w3.org/2000/svg" xmlns:xlink="http://www.w3.org/1999/xlink" width="200" height="200" viewBox="0 0 24 24" xml:space="preserve">
  <g id="SVGRepo_bgCarrier" stroke-width="0"></g>
  <g
    id="SVGRepo_tracerCarrier"
    stroke-linecap="round"
    stroke-linejoin="round"
  ></g>
  <g id="SVGRepo_iconCarrier">
    <path d="M12 2C10.34 2 9 3.34 9 5V6.5C9 7.62 8.31 8.6 7.36 9.2C6.71 9.57 6.31 10.24 6.31 11V12.5C6.31 13.76 7.15 14.75 8.28 14.99C8.73 15.07 9.17 15.09 9.62 15H14.38C14.83 15.09 15.27 15.07 15.72 14.99C16.85 14.75 17.69 13.76 17.69 12.5V11C17.69 10.24 17.29 9.57 16.64 9.2C15.69 8.6 15 7.62 15 6.5V5C15 3.34 13.66 2 12 2Z" fill="#000000"/>
    <path d="M3.5 6.5C2.67 6.5 2 7.17 2 8V12C2 12.83 2.67 13.5 3.5 13.5C4.33 13.5 5 12.83 5 12V8C5 7.17 4.33 6.5 3.5 6.5Z" fill="#000000"/>
    <path d="M20.5 6.5C19.67 6.5 19 7.17 19 8V12C19 12.83 19.67 13.5 20.5 13.5C21.33 13.5 22 12.83 22 12V8C22 7.17 21.33 6.5 20.5 6.5Z" fill="#000000"/>
    <path d="M12 14C10.34 14 9 15.34 9 17V18.5C9 19.62 8.31 20.6 7.36 21.2C6.71 21.57 6.31 22.24 6.31 23V24.5C6.31 25.76 7.15 26.75 8.28 26.99C8.73 27.07 9.17 27.09 9.62 27H14.38C14.83 27.09 15.27 27.07 15.72 26.99C16.85 26.75 17.69 25.76 17.69 24.5V23C17.69 22.24 17.29 21.57 16.64 21.2C15.69 20.6 15 19.62 15 18.5V17C15 15.34 13.66 14 12 14Z" fill="#000000"/>
    <path d="M3.5 18.5C2.67 18.5 2 19.17 2 20V24C2 24.83 2.67 25.5 3.5 25.5C4.33 25.5 5 24.83 5 24V20C5 19.17 4.33 18.5 3.5 18.5Z" fill="#000000"/>
    <path d="M20.5 18.5C19.67 18.5 19 19.17 19 20V24C19 24.83 19.67 25.5 20.5 25.5C21.33 25.5 22 24.83 22 24V20C22 19.17 21.33 18.5 20.5 18.5Z" fill="#000000"/>
  </g>
</svg>